<mxfile host="app.diagrams.net" modified="2023-08-23T05:46:23.886Z" agent="Mozilla/5.0 (Macintosh; Intel Mac OS X 10_15_7) AppleWebKit/537.36 (KHTML, like Gecko) Chrome/116.0.0.0 Safari/537.36" version="21.6.9" etag="-ifwmzLxicTAAEpIjfHe" type="github">
  <diagram name="페이지-1" id="bog__IQAwSi_GLkosAdt">
    <mxGraphModel>
      <root>
        <mxCell id="0" />
        <mxCell id="1" parent="0" />
      </root>
    </mxGraphModel>
  </diagram>
</mxfile>
